<svg id="Layer_1" data-name="Layer 1" xmlns="http://www.w3.org/2000/svg" xmlns:xlink="http://www.w3.org/1999/xlink" viewBox="0 0 1213.16 728.57"><defs><style>.cls-1{fill:url(#linear-gradient);}.cls-2{fill:url(#linear-gradient-2);}.cls-3{fill:url(#linear-gradient-3);}.cls-4{fill:url(#linear-gradient-4);}.cls-5{fill:url(#linear-gradient-5);}.cls-6{fill:url(#linear-gradient-6);}.cls-7{fill:url(#linear-gradient-7);}</style><linearGradient id="linear-gradient" x1="264.96" y1="655.39" x2="264.96" y2="718.66" gradientUnits="userSpaceOnUse"><stop offset="0" stop-color="#37c3f4"/><stop offset="1" stop-color="#06f"/></linearGradient><linearGradient id="linear-gradient-2" x1="379.31" y1="655.39" x2="379.31" y2="718.66" xlink:href="#linear-gradient"/><linearGradient id="linear-gradient-3" x1="500.76" y1="655.39" x2="500.76" y2="718.66" xlink:href="#linear-gradient"/><linearGradient id="linear-gradient-4" x1="650.3" y1="655.39" x2="650.3" y2="718.66" xlink:href="#linear-gradient"/><linearGradient id="linear-gradient-5" x1="804.98" y1="655.39" x2="804.98" y2="718.66" xlink:href="#linear-gradient"/><linearGradient id="linear-gradient-6" x1="951.45" y1="655.39" x2="951.45" y2="718.66" xlink:href="#linear-gradient"/><linearGradient id="linear-gradient-7" x1="606.58" y1="9.91" x2="606.58" y2="399.42" xlink:href="#linear-gradient"/></defs><title>LOGO</title><path d="M104.55,499.13v98.64H73.1V499.13H16.5V472H161.15v27.13Z"/><path d="M349.45,513.32a44.85,44.85,0,0,1-2.15,14.56,38.38,38.38,0,0,1-5.66,10.87,35.19,35.19,0,0,1-7.91,7.63,44.79,44.79,0,0,1-8.89,4.86l21.92,46.53H313l-20.13-42.94H226.91v42.94H195.28V472h113a50.65,50.65,0,0,1,12.13,1.79A40.54,40.54,0,0,1,334,480.17a37.73,37.73,0,0,1,11,12.58Q349.46,500.75,349.45,513.32Zm-31.62,0a14.4,14.4,0,0,0-1.62-7.28,12.61,12.61,0,0,0-3.95-4.31,14.38,14.38,0,0,0-4.76-2.07,19.48,19.48,0,0,0-3.86-.53H226.91V527.7h76.73a15,15,0,0,0,3.41-.63,16.37,16.37,0,0,0,4.76-2.25,14.72,14.72,0,0,0,4.22-4.4A12.85,12.85,0,0,0,317.83,513.32Z"/><path d="M525,597.77l-14.56-25.15H421.87l-14.56,25.15h-33.6L445.94,472h40.43L558.6,597.77ZM466.25,495.53l-28.75,50H495Z"/><path d="M586.46,597.77V472h31.62V597.77Z"/><path d="M780.15,597.77l-90.91-87.86v87.86H657.61V472h31.63l90.91,87.86V472h31.63V597.77Z"/><path d="M851.31,597.77V472h151.47v27.13H882.93v22.64H988.41V546.2H882.93v24.44h124.52v27.13Z"/><path d="M1196.66,513.32a44.84,44.84,0,0,1-2.16,14.56,37.87,37.87,0,0,1-5.66,10.87,35.15,35.15,0,0,1-7.9,7.63,44.86,44.86,0,0,1-8.9,4.86L1194,597.77h-33.79l-20.12-42.94h-66v42.94h-31.62V472h113a50.58,50.58,0,0,1,12.13,1.79,40.68,40.68,0,0,1,13.57,6.38,37.84,37.84,0,0,1,11,12.58Q1196.66,500.75,1196.66,513.32Zm-31.63,0a14.41,14.41,0,0,0-1.61-7.28,12.71,12.71,0,0,0-4-4.31,14.43,14.43,0,0,0-4.77-2.07,19.29,19.29,0,0,0-3.86-.53h-76.73V527.7h76.73a14.86,14.86,0,0,0,3.41-.63,16.3,16.3,0,0,0,4.77-2.25,15,15,0,0,0,4.22-4.4A12.85,12.85,0,0,0,1165,513.32Z"/><path class="cls-1" d="M224.19,655.39H241l25.63,45.74L291,655.39h14.71l-34.82,63.27H260.73Z"/><path class="cls-2" d="M372,655.39h14.71v63.27H372Z"/><path class="cls-3" d="M468.08,655.39h64.75v10.79h-50v14.1H512v10.79H482.8v15.7h50.64v11.89H468.08Z"/><path class="cls-4" d="M598.3,655.39h15.21l16.06,42.43,16.8-42.43h10.3l17.17,42.43,15.33-42.43h13.12l-24.4,63.27H668l-17.41-43.77-17.66,43.77H622.7Z"/><path class="cls-5" d="M772.3,655.39h64.75v10.79H787v14.1H816.2v10.79H787v15.7h50.64v11.89H772.3Z"/><path class="cls-6" d="M913.93,655.39h54.19c4.91,0,8.5,1,10.79,2.82s3.44,5,3.44,9.45v14.83c0,4.42-1.15,7.56-3.44,9.45s-5.88,2.81-10.79,2.81h-8.34L989,718.66H967.88l-25.51-23.91h-14v23.91H913.93Zm14.46,10.92V684H961.5a10.38,10.38,0,0,0,5-.92c1.06-.61,1.59-2,1.59-4.1v-7.61q0-3.18-1.59-4.11a10.52,10.52,0,0,0-5-.91Z"/><path class="cls-7" d="M912.29,215.87a35.13,35.13,0,0,0-48.66-10L817.11,237,744.17,128l46.48-31.12a35.29,35.29,0,0,0,9.62-48.38,35.13,35.13,0,0,0-48.66-10L740.49,46a35,35,0,0,0-53.4-20.17L679.24,31,668.62,15.18a11.9,11.9,0,0,0-16.49-3.26L613.51,37.77a11.9,11.9,0,0,0-3.27,16.49l.09.13A54.47,54.47,0,0,1,632.09,72.9c.59.84,1.25,1.61,1.8,2.48l2,3.05,2.3,3.6,2.31,3.6,59.89-40.09A11.34,11.34,0,1,1,713,64.39l-60.27,40.35,2.3,3.61,2.31,3.6,3.6,5.63,2.3,3.6,2.31,3.6,99.3-66.47a11.29,11.29,0,0,1,6.28-1.92,12.23,12.23,0,0,1,2.24.22,11.34,11.34,0,0,1,4.1,20.55L677.73,143.9l2.3,3.6,2.31,3.6,3.6,5.63,42.13,65.85L763.53,278l2.31,3.6,3.6,5.62,2.3,3.61,2.31,3.6,102.77-68.8a11.34,11.34,0,1,1,12.62,18.85L786.28,313.55l2.3,3.61,2.31,3.6,3.6,5.63,2.3,3.6,2.31,3.61,65-43.49A11.34,11.34,0,0,1,876.68,309L811.32,352.7l2.31,3.61,2.31,3.6,3.6,5.63,2.3,3.6h0a27.88,27.88,0,0,1,2.37,4.73l10.07,15.06a11.91,11.91,0,0,0,9.9,5.27,11.76,11.76,0,0,0,6.6-2l38.62-25.85a11.9,11.9,0,0,0,3.26-16.49L882,334l7.87-5.27a35,35,0,0,0,11.63-45.27,34.72,34.72,0,0,0-9.92-11.79l11-7.4A35.3,35.3,0,0,0,912.29,215.87ZM797.35,250.22,778.5,262.84,705.56,153.89l18.85-12.62ZM655.47,38.29l4,6L640.62,56.9l-4-6Zm188,321.55,18.85-12.62,4,6-18.85,12.63ZM811,376.06h0l-2.29-3.6-3.57-5.56-2.33-3.65-2.31-3.61-12-18.76-2.31-3.6-2.31-3.62-3.69-5.76-2.3-3.6-2.31-3.61-12.23-19.11-2.3-3.6-2.31-3.61-3.6-5.62-2.3-3.6-2.31-3.61L679.88,171.07l-2.3-3.6-2.31-3.6-3.6-5.63-2.3-3.6L667.06,151l-12.22-19.11-2.31-3.6-2.31-3.6-3.6-5.63-2.3-3.6L642,111.88,629.79,92.77l-2.31-3.6-2.31-3.61-2.09-3.27c-.5-.79-1.1-1.5-1.65-2.26-.84-1.16-1.71-2.3-2.65-3.37s-1.92-2.17-3-3.16a47.32,47.32,0,0,0-4.45-3.69,45.42,45.42,0,0,0-20.91-8.25,46.44,46.44,0,0,0-5.8-.36,45.33,45.33,0,0,0-38.43,21.09l-69.9,109.85A45.39,45.39,0,0,0,448,182.26h0a45.37,45.37,0,0,0-34.87,16.23,46.55,46.55,0,0,0-3.41,4.64l-56.06,86.42L297.58,376a15.18,15.18,0,0,0,12.74,23.44H798.24a15.17,15.17,0,0,0,4-.55,16.86,16.86,0,0,0,9.27-7.34,15.2,15.2,0,0,0,1.86-7.81,14.75,14.75,0,0,0-.61-3.59A15,15,0,0,0,811,376.06ZM571.84,98.6a15.19,15.19,0,0,1,25.64,0l.38.59,4,6.19,7,10.9,3,4.71,7.08,11.06.2.31,2.3,3.6,3.6,5.62,2.31,3.61,2.3,3.6,8.47,13.24-6.86,13-4.07,7.7-3,5.67-3.72,7-2.2,4.16-1.29,2.45-1.74-2.77-3.25-5.17-14.42-23a15,15,0,0,0-3.92-4,15.2,15.2,0,0,0-8.34-2.95c-.42,0-.83-.13-1.25-.11a15.2,15.2,0,0,0-12.85,8.23l-15,29.17-24.45-39.8ZM338.27,369.05l97-149.44a15.17,15.17,0,0,1,25.54,0l96.08,149.44Zm406.23,0H592.94L495.85,218l17.71-27.84,30.82,50.16a15.18,15.18,0,0,0,26.44-1L586,209.88l19.23,30.6a15.2,15.2,0,0,0,12.86,7.1h.56a15.17,15.17,0,0,0,12.86-8.08l25.39-48,68.45,107,2.31,3.6,2.3,3.6,3.6,5.63,2.31,3.6,2.3,3.61,12.23,19.11,2.31,3.6,2.3,3.61,3.6,5.62,2.31,3.61,9.61,15h-26Z"/></svg>